# xmcd
#
# Track frame offsets:
#	150
#	23886
#	54639
#	69778
#	94229
#	112025
#	128681
#	147479
#	163925
#	182430
#	199645
#	231539
#	249375
#	271413
#	298509
#
# Disc length: 4441 seconds
#
# Revision: 1
# Processed by: cddbd v1.5.2PL0 Copyright (c) Steve Scherf et al.
# Submitted via: audiograbber 1.83.01
#
DISCID=dd11570f
DTITLE=Shri - Flowers of Shrivil
DYEAR=2000
DGENRE=Blues
TTITLE0=Done me Wrong
TTITLE1=Sugar
TTITLE2=Crime
TTITLE3=Holy
TTITLE4=Beggar's Blues
TTITLE5=Things
TTITLE6=Rise Up
TTITLE7=Cheatin'
TTITLE8=You got to move
TTITLE9=I seen
TTITLE10=Natural healer
TTITLE11=Treats
TTITLE12=Get Back
TTITLE13=Used to be
TTITLE14=State of Mind
EXTD=
EXTT0=
EXTT1=
EXTT2=
EXTT3=
EXTT4=
EXTT5=
EXTT6=
EXTT7=
EXTT8=
EXTT9=
EXTT10=
EXTT11=
EXTT12=
EXTT13=
EXTT14=
PLAYORDER=
